<?xml version="1.0" encoding="utf-8"?>
<!-- Generator: Adobe Illustrator 27.2.0, SVG Export Plug-In . SVG Version: 6.00 Build 0)  -->
<svg version="1.1" id="Layer_1" xmlns="http://www.w3.org/2000/svg" xmlns:xlink="http://www.w3.org/1999/xlink" x="0px" y="0px"
	 viewBox="0 0 785.7 480.2" style="enable-background:new 0 0 785.7 480.2;" xml:space="preserve">
<style type="text/css">
	.st0{fill:#F5F5F5;}
	.st1{fill:none;stroke:#EBEBEB;stroke-miterlimit:10;}
	.st2{fill:none;stroke:#C2C2C2;stroke-width:0.9;}
	.st3{clip-path:url(#SVGID_00000181060668166631748490000016982282332338235552_);}
	.st4{fill:none;stroke:#EBEBEB;stroke-width:2.19;}
	.st5{fill:#EBEBEB;}
	.st6{fill:#FFFFFF;}
	.st7{clip-path:url(#SVGID_00000045610875466168223780000011381510352912298897_);}
	.st8{fill:none;stroke:#C2C2C2;}
	.st9{fill:none;stroke:#DCAA3C;stroke-width:5;stroke-miterlimit:10;}
	.st10{fill:none;stroke:#1A1A1A;stroke-width:5;stroke-miterlimit:10;}
	.st11{fill:#B40082;stroke:#E11EA2;stroke-width:5;stroke-miterlimit:10;}
	.st12{fill:#00D2C0;}
	.st13{fill:none;stroke:#000000;stroke-width:3;stroke-miterlimit:10;}
</style>
<g id="Layer_2_00000078021643988439250470000007093571105103313341_">
	<path class="st0" d="M24.7,11h740c5.5,0,10,4.5,10,10v440c0,5.5-4.5,10-10,10h-740c-5.5,0-10-4.5-10-10V21
		C14.8,15.5,19.2,11,24.7,11z"/>
	<rect x="697.4" y="36.9" class="st1" width="39.1" height="39.1"/>
	<path class="st2" d="M125.8,476.8c-10.8-0.3-19.3-9.4-19-20.2c0.3-10.3,8.6-18.7,19-19V476.8z"/>
	<g>
		<g>
			<g>
				<defs>
					<rect id="SVGID_1_" x="669" y="392" width="105.8" height="36.5"/>
				</defs>
				<clipPath id="SVGID_00000014621182711780327950000009492414926597482679_">
					<use xlink:href="#SVGID_1_"  style="overflow:visible;"/>
				</clipPath>
				<g style="clip-path:url(#SVGID_00000014621182711780327950000009492414926597482679_);">
					<g id="mask0_1501_9274">
						<line class="st4" x1="621.3" y1="430.1" x2="663.1" y2="388.3"/>
						<line class="st4" x1="710.8" y1="430.1" x2="752.6" y2="388.3"/>
						<line class="st4" x1="611.4" y1="430.1" x2="653.1" y2="388.3"/>
						<line class="st4" x1="790.4" y1="430.1" x2="832.2" y2="388.3"/>
						<line class="st4" x1="700.9" y1="430.1" x2="742.6" y2="388.3"/>
						<line class="st4" x1="601.4" y1="430.1" x2="643.2" y2="388.3"/>
						<line class="st4" x1="780.5" y1="430.1" x2="822.2" y2="388.3"/>
						<line class="st4" x1="690.9" y1="430.1" x2="732.7" y2="388.3"/>
						<line class="st4" x1="591.5" y1="430.1" x2="633.2" y2="388.3"/>
						<line class="st4" x1="770.5" y1="430.1" x2="812.3" y2="388.3"/>
						<line class="st4" x1="681" y1="430.1" x2="722.7" y2="388.3"/>
						<line class="st4" x1="581.5" y1="430.1" x2="623.3" y2="388.3"/>
						<line class="st4" x1="760.6" y1="430.1" x2="802.3" y2="388.3"/>
						<line class="st4" x1="671" y1="430.1" x2="712.8" y2="388.3"/>
						<line class="st4" x1="571.6" y1="430.1" x2="613.3" y2="388.3"/>
						<line class="st4" x1="750.6" y1="430.1" x2="792.4" y2="388.3"/>
						<line class="st4" x1="661.1" y1="430.1" x2="702.8" y2="388.3"/>
						<line class="st4" x1="561.6" y1="430.1" x2="603.4" y2="388.3"/>
						<line class="st4" x1="740.7" y1="430.1" x2="782.4" y2="388.3"/>
						<line class="st4" x1="651.1" y1="430.1" x2="692.9" y2="388.3"/>
						<line class="st4" x1="551.7" y1="430.1" x2="593.4" y2="388.3"/>
						<line class="st4" x1="730.7" y1="430.1" x2="772.5" y2="388.3"/>
						<line class="st4" x1="641.2" y1="430.1" x2="683" y2="388.3"/>
						<line class="st4" x1="541.7" y1="430.1" x2="583.5" y2="388.3"/>
						<line class="st4" x1="720.8" y1="430.1" x2="762.5" y2="388.3"/>
						<line class="st4" x1="631.2" y1="430.1" x2="673" y2="388.3"/>
					</g>
				</g>
			</g>
		</g>
	</g>
	<circle class="st5" cx="21.7" cy="292.6" r="1.6"/>
	<circle class="st5" cx="37.8" cy="292.6" r="1.6"/>
	<circle class="st5" cx="5.7" cy="292.6" r="1.6"/>
	<circle class="st5" cx="53.8" cy="292.6" r="1.6"/>
	<circle class="st5" cx="69.9" cy="292.6" r="1.6"/>
	<circle class="st5" cx="21.7" cy="340.7" r="1.6"/>
	<circle class="st5" cx="37.8" cy="340.7" r="1.6"/>
	<circle class="st5" cx="5.7" cy="340.7" r="1.6"/>
	<circle class="st5" cx="53.8" cy="340.7" r="1.6"/>
	<circle class="st5" cx="69.9" cy="340.7" r="1.6"/>
	<circle class="st5" cx="21.7" cy="308.6" r="1.6"/>
	<circle class="st5" cx="37.8" cy="308.6" r="1.6"/>
	<circle class="st5" cx="5.7" cy="308.6" r="1.6"/>
	<circle class="st5" cx="53.8" cy="308.6" r="1.6"/>
	<circle class="st5" cx="69.9" cy="308.6" r="1.6"/>
	<circle class="st5" cx="21.7" cy="356.8" r="1.6"/>
	<circle class="st5" cx="37.8" cy="356.8" r="1.6"/>
	<circle class="st5" cx="5.7" cy="356.8" r="1.6"/>
	<circle class="st5" cx="53.8" cy="356.8" r="1.6"/>
	<circle class="st5" cx="69.9" cy="356.8" r="1.6"/>
	<circle class="st5" cx="21.7" cy="324.7" r="1.6"/>
	<circle class="st5" cx="37.8" cy="324.7" r="1.6"/>
	<circle class="st5" cx="5.7" cy="324.7" r="1.6"/>
	<circle class="st5" cx="53.8" cy="324.7" r="1.6"/>
	<circle class="st5" cx="69.9" cy="324.7" r="1.6"/>
	<circle class="st6" cx="732.3" cy="319.1" r="5.5"/>
	<circle class="st6" cx="755.1" cy="319.1" r="5.5"/>
	<circle class="st6" cx="732.3" cy="391" r="5.5"/>
	<circle class="st6" cx="755.1" cy="391" r="5.5"/>
	<circle class="st6" cx="732.3" cy="343" r="5.5"/>
	<circle class="st6" cx="755.1" cy="343" r="5.5"/>
	<circle class="st6" cx="732.3" cy="367" r="5.5"/>
	<circle class="st6" cx="755.1" cy="367" r="5.5"/>
	<g>
		<g>
			<g>
				<defs>
					<rect id="SVGID_00000150094951356057216330000011660145802629169599_" x="14.8" y="132.7" width="44.9" height="134.3"/>
				</defs>
				<clipPath id="SVGID_00000155132740331130427460000010944073241938242219_">
					<use xlink:href="#SVGID_00000150094951356057216330000011660145802629169599_"  style="overflow:visible;"/>
				</clipPath>
				<g style="clip-path:url(#SVGID_00000155132740331130427460000010944073241938242219_);">
					<circle class="st5" cx="-10.3" cy="199.2" r="58.9"/>
				</g>
			</g>
		</g>
	</g>
	<path class="st8" d="M710.4,61.5l-9.8,39.5h-3.2l9.8-39.5H710.4z"/>
</g>
<g id="Layer_1_00000044159772708089615430000010315494069507182732_">
	<circle class="st9" cx="433.5" cy="331.4" r="27.1"/>
	<line class="st10" x1="417.7" y1="209.9" x2="238.9" y2="162.5"/>
	<line class="st11" x1="383.3" y1="338.9" x2="209" y2="285.3"/>
	<line class="st10" x1="378.7" y1="353.4" x2="417.7" y2="200.5"/>
	<line class="st10" x1="394.6" y1="233.5" x2="569" y2="95.5"/>
	<line class="st11" x1="287.9" y1="414.5" x2="202" y2="260.9"/>
	<line class="st10" x1="210.7" y1="294.7" x2="238.9" y2="162.5"/>
	<line class="st11" x1="287.9" y1="414.5" x2="384.1" y2="333"/>
	<circle class="st12" cx="552.2" cy="114.1" r="41.6"/>
	<circle class="st12" cx="244.9" cy="164.5" r="41.6"/>
	
		<ellipse transform="matrix(0.2112 -0.9774 0.9774 0.2112 -109.808 429.1335)" class="st12" cx="211" cy="282.6" rx="41.6" ry="41.6"/>
	<circle class="st12" cx="289.8" cy="415.8" r="41.6"/>
	<circle class="st12" cx="383.4" cy="337" r="41.6"/>
	<circle class="st12" cx="418.7" cy="209.9" r="41.6"/>
	<g>
		<g>
			<path d="M245.8,148.4c2.6,0,4.7,0.2,6.3,0.7s2.7,1.3,3.5,2.4c0.7,1.1,1.1,2.7,1.1,4.7c0,1.5-0.1,2.9-0.4,4.1
				c-0.3,1.2-0.8,2.1-1.5,2.9c-0.7,0.7-1.8,1.2-3.2,1.4v0.2c2.3,0.4,3.8,1.2,4.7,2.6c0.9,1.4,1.3,3.3,1.3,5.7c0,2.3-0.3,4.2-1.1,5.6
				c-0.7,1.5-1.9,2.5-3.6,3.2c-1.7,0.7-3.9,1-6.7,1c-1.9,0-3.9-0.1-5.8-0.3c-2-0.2-3.8-0.4-5.7-0.6l0.3-5.4c1.3,0.1,2.4,0.2,3.4,0.2
				s2,0.1,2.9,0.1s1.9,0,2.8,0c1.6,0,2.8-0.1,3.7-0.4s1.5-0.8,1.9-1.5s0.6-1.7,0.6-3c0-1-0.1-1.9-0.4-2.6c-0.3-0.7-0.8-1.2-1.5-1.6
				s-1.8-0.5-3.2-0.5h-6.3v-4.8h6.3c1.1,0,1.9-0.1,2.5-0.4c0.6-0.2,1.1-0.6,1.4-1c0.3-0.4,0.5-0.9,0.6-1.4s0.1-1.1,0.1-1.8
				c0-1.1-0.2-1.9-0.5-2.4s-0.8-0.9-1.6-1.1c-0.8-0.2-1.8-0.3-3.1-0.3c-1.7,0-3.3,0-4.8,0.1c-1.6,0-2.9,0.1-4.1,0.1l-0.3-5.1
				c1.8-0.3,3.6-0.6,5.3-0.7S244.1,148.4,245.8,148.4z"/>
		</g>
	</g>
	<g>
		<g>
			<path d="M420.4,194.1l-8,19.1c-0.2,0.5-0.2,0.9,0,1.2s0.6,0.4,1,0.4h19v4.4l-4.1,0.7h-20.2c-0.9,0-1.7-0.2-2.3-0.7
				s-1.1-1.1-1.3-1.9c-0.2-0.8-0.1-1.6,0.2-2.4l8.7-20.7L420.4,194.1L420.4,194.1z M428.4,200.5v26.7h-6.8v-21.4l1.2-5.3H428.4z"/>
		</g>
	</g>
	<g>
		<g>
			<path d="M297.5,399.8v33.1h-7.3v-23.5c0-0.6,0-1.2,0-1.8c0-0.6,0.1-1.2,0.2-1.8l-7.9,2l-0.9-4.8l8.4-3.3L297.5,399.8L297.5,399.8
				z"/>
		</g>
	</g>
	<g>
		<g>
			<path d="M211.2,267.4c2.3,0,4.3,0.2,6,0.6s3,1.2,3.9,2.3c0.9,1.1,1.4,2.7,1.4,4.8c0,1.2-0.2,2.4-0.5,3.5s-0.8,2.2-1.6,3.3
				c-0.8,1.2-1.9,2.5-3.4,4.1l-8.7,9c0.8-0.1,1.6-0.2,2.4-0.3c0.8,0,1.6-0.1,2.5-0.1h10.2v6.4h-23.7v-3.9c0-0.6,0.1-1.1,0.2-1.6
				c0.2-0.5,0.4-1,0.8-1.4l8.3-8.8c2-2,3.4-3.8,4.5-5.4c1-1.6,1.5-2.9,1.5-4.1c0-0.7-0.2-1.2-0.6-1.5c-0.3-0.3-0.8-0.5-1.5-0.6
				c-0.7-0.1-1.5-0.1-2.5-0.1c-1.1,0-2.2,0-3.1,0c-1,0-2,0.1-3.1,0.1c-1.1,0.1-2.4,0.2-3.9,0.3l-0.3-5.5c1.6-0.4,3-0.6,4.2-0.8
				c1.3-0.2,2.5-0.3,3.6-0.3C209,267.4,210.1,267.4,211.2,267.4z"/>
		</g>
	</g>
	<g>
		<g>
			<path d="M393.7,320.8l-0.2,5.5h-13.8l-0.4,6.2l4.8,0.5c2,0.2,3.7,0.6,5.1,1.2c1.4,0.6,2.4,1.3,3.2,2.3c0.8,0.9,1.4,2,1.7,3.2
				c0.4,1.2,0.5,2.6,0.5,4.1c0,1.4-0.2,2.8-0.5,4.1c-0.4,1.3-1,2.4-1.8,3.4s-2,1.8-3.5,2.3c-1.5,0.6-3.4,0.8-5.8,0.8
				c-1.5,0-3.3-0.1-5.2-0.3s-3.9-0.4-5.9-0.7l0.7-5.6c1.6,0.2,3.1,0.3,4.6,0.4c1.5,0.1,2.8,0.2,4,0.2c1.7,0,3-0.2,3.8-0.5
				c0.9-0.4,1.5-0.9,1.8-1.6c0.3-0.7,0.5-1.6,0.6-2.7c0-1.1-0.1-1.9-0.4-2.5s-0.7-1.1-1.3-1.5s-1.4-0.6-2.4-0.7
				c-1-0.1-2.2-0.3-3.7-0.4l-4.1-0.5c-0.7-0.1-1.2-0.4-1.6-0.8c-0.4-0.5-0.6-1-0.6-1.7l0.8-14.7H393.7z"/>
		</g>
	</g>
	<g>
		<g>
			<path d="M552.6,95.5c3.7,0,6.6,0.7,8.8,2c2.2,1.3,3.8,3.4,4.7,6.4c1,2.9,1.4,6.9,1.4,11.8c0,4.9-0.5,8.9-1.4,11.8
				c-1,2.9-2.5,5-4.7,6.4c-2.2,1.3-5.1,2-8.8,2c-3.7,0-6.6-0.7-8.8-2c-2.2-1.3-3.7-3.4-4.7-6.4c-0.9-2.9-1.4-6.9-1.4-11.8
				c0-4.9,0.5-8.9,1.4-11.8c0.9-2.9,2.5-5,4.7-6.4C546,96.1,548.9,95.5,552.6,95.5z M552.6,102.2c-1.2,0-2.3,0.2-3.1,0.6
				c-0.8,0.4-1.5,1.1-2,2.1c-0.5,1-0.8,2.3-1,4.1s-0.3,3.9-0.3,6.6c0,2.7,0.1,4.9,0.3,6.6c0.2,1.8,0.6,3.1,1,4.1
				c0.5,1,1.1,1.7,2,2.1c0.8,0.4,1.8,0.6,3.1,0.6c1.3,0,2.3-0.2,3.2-0.6c0.8-0.4,1.5-1.1,2-2.1c0.5-1,0.9-2.3,1.1-4.1
				c0.2-1.8,0.3-4,0.3-6.6c0-2.7-0.1-4.9-0.3-6.6s-0.6-3.1-1.1-4.1c-0.5-1-1.2-1.7-2-2.1C554.9,102.4,553.9,102.2,552.6,102.2z"/>
		</g>
	</g>
	<polygon points="501,195.1 493.5,172 517.1,178.5 	"/>
	<line class="st13" x1="547.7" y1="224.8" x2="503.9" y2="183.1"/>
	<polygon points="352.2,406.9 344.8,383.8 368.3,390.3 	"/>
	<line class="st13" x1="399" y1="436.7" x2="355.1" y2="394.9"/>
	<polygon points="494.1,342.2 472.8,330.7 494.2,319.1 	"/>
	<line class="st13" x1="548.4" y1="331.2" x2="487.9" y2="331.6"/>
	<polygon points="429.3,139.3 417.9,160.7 406.2,139.3 	"/>
	<line class="st13" x1="417.9" y1="85" x2="418.7" y2="145.6"/>
	<line class="st13" x1="419.4" y1="86.5" x2="215.4" y2="86.5"/>
	<line class="st13" x1="607.2" y1="224.1" x2="546.7" y2="224.5"/>
	<line class="st13" x1="458.5" y1="435.9" x2="398" y2="436.2"/>
	<g>
		<g>
			<path d="M620.3,209.2c1,0,2.1,0,3.2,0c1.1,0,2.1,0,3.1,0.1s2,0.1,2.9,0.2l-0.2,3.1h-7.4c-0.5,0-0.8,0.1-1,0.4s-0.3,0.6-0.3,1.1
				v9.9c0,0.5,0.1,0.8,0.3,1.1c0.2,0.2,0.6,0.4,1,0.4h7.4l0.2,3.1c-0.9,0.1-1.9,0.1-2.9,0.2s-2.1,0.1-3.1,0.1c-1.1,0-2.1,0-3.2,0
				c-1.2,0-2.2-0.4-3-1.1c-0.8-0.7-1.1-1.7-1.1-2.8v-11.7c0-1.2,0.4-2.1,1.1-2.8S619.1,209.2,620.3,209.2z M616.7,217h11.6v3h-11.6
				V217z"/>
			<path d="M637,214.4c1,0,1.9,0.1,2.8,0.4c0.9,0.3,1.7,0.7,2.4,1.4l-0.3,1.9c-0.6-0.2-1.2-0.4-1.7-0.5s-1.1-0.2-1.8-0.2
				c-0.6,0-1,0.1-1.4,0.3c-0.4,0.2-0.6,0.6-0.8,1.2c-0.2,0.6-0.3,1.5-0.3,2.7c0,1.1,0.1,1.9,0.2,2.5c0.2,0.6,0.4,1,0.8,1.2
				c0.3,0.2,0.8,0.3,1.3,0.3c0.5,0,0.9-0.1,1.3-0.2c0.4-0.1,0.7-0.3,1.1-0.5c0.4-0.2,0.8-0.5,1.2-0.8l0.3,2c-0.6,0.8-1.3,1.4-2.2,2
				c-0.9,0.5-2,0.8-3.3,0.8c-1.8,0-3-0.6-3.8-1.9c-0.8-1.3-1.1-3.1-1.1-5.5c0-1.8,0.2-3.3,0.6-4.3s1-1.8,1.8-2.2
				S635.8,214.4,637,214.4z M645.6,209v19.6h-3.3l-0.4-2.5l-0.4-0.3v-9.1l0.2-0.4c-0.1-0.6-0.1-1.2-0.1-1.8c0-0.6,0-1.2,0-1.8V209
				H645.6z"/>
			<path d="M650.9,222.3l2.1,0.4c-0.3,0.1-0.4,0.4-0.5,0.7c-0.1,0.3-0.1,0.6,0.1,0.9c0.1,0.3,0.5,0.4,1,0.5l5.1,0.6
				c1.5,0.1,2.5,0.6,3.1,1.2s0.9,1.6,0.9,2.9c0,1.2-0.2,2.1-0.7,2.8s-1.3,1.1-2.3,1.3c-1.1,0.2-2.5,0.4-4.3,0.4
				c-1.5,0-2.7-0.1-3.6-0.2c-0.9-0.1-1.7-0.4-2.2-0.7c-0.6-0.3-0.9-0.7-1.1-1.2c-0.2-0.5-0.3-1.2-0.3-1.9c0-0.6,0.1-1.1,0.3-1.5
				c0.2-0.4,0.6-0.8,1-1.1c0.5-0.3,1.2-0.6,2.1-0.9l2-0.7l1.5,0.6l-1.1,0.7c-0.5,0.3-0.8,0.6-1.1,0.9c-0.3,0.2-0.5,0.5-0.6,0.7
				c-0.1,0.2-0.2,0.5-0.2,0.9c0,0.4,0.1,0.8,0.3,1s0.5,0.4,1,0.5c0.5,0.1,1.2,0.1,2,0.1c0.9,0,1.6,0,2.1-0.1c0.5-0.1,0.9-0.2,1-0.5
				c0.2-0.2,0.3-0.5,0.3-1c0-0.4-0.1-0.6-0.2-0.8c-0.1-0.2-0.4-0.3-0.7-0.4c-0.3-0.1-0.8-0.2-1.4-0.2l-4.3-0.5
				c-0.7-0.1-1.3-0.3-1.7-0.6s-0.7-0.7-0.9-1.2c-0.2-0.5-0.2-0.9-0.1-1.4c0.1-0.5,0.2-0.9,0.5-1.3
				C650.2,222.8,650.5,222.5,650.9,222.3z M655.1,214.4c1.6,0,2.9,0.1,3.8,0.4c0.9,0.3,1.6,0.8,2,1.4c0.4,0.6,0.6,1.5,0.6,2.5
				c0,1-0.2,1.9-0.6,2.5c-0.4,0.6-1.1,1.1-2.1,1.4c-1,0.3-2.2,0.4-3.9,0.4s-2.9-0.1-3.8-0.4c-1-0.3-1.7-0.8-2.1-1.4
				s-0.6-1.5-0.6-2.5s0.2-1.9,0.6-2.5s1.1-1.1,2.1-1.4C652.3,214.6,653.5,214.4,655.1,214.4z M655.1,217c-1,0-1.7,0.1-2.1,0.4
				c-0.4,0.3-0.6,0.8-0.6,1.4s0.2,1.2,0.6,1.5c0.4,0.3,1.1,0.4,2.1,0.4s1.7-0.1,2.1-0.4c0.4-0.3,0.6-0.8,0.6-1.5s-0.2-1.2-0.6-1.4
				C656.8,217.1,656.1,217,655.1,217z M663.2,214.8l-0.2,1.8l-3.7,0.5l-1-2.2H663.2z"/>
			<path d="M671.8,214.4c2.3,0,4,0.4,5,1.2s1.5,2,1.5,3.5c0,1.3-0.3,2.2-1,2.8c-0.7,0.6-1.8,0.9-3.4,0.9h-7.7v-2.3h6.6
				c0.6,0,1-0.1,1.2-0.4c0.2-0.3,0.3-0.6,0.3-1.1c0-0.7-0.2-1.1-0.6-1.4c-0.4-0.3-1-0.4-1.8-0.4c-0.8,0-1.4,0.1-1.8,0.3
				c-0.4,0.2-0.7,0.6-0.9,1.2s-0.3,1.4-0.3,2.5c0,1.2,0.1,2,0.3,2.7c0.2,0.6,0.6,1.1,1,1.3c0.5,0.2,1.2,0.4,2.1,0.4
				c0.6,0,1.4,0,2.4-0.1s1.9-0.1,2.8-0.2l0.4,2.5c-0.5,0.3-1.2,0.5-1.8,0.6s-1.4,0.3-2.1,0.3c-0.7,0.1-1.4,0.1-2.1,0.1
				c-1.8,0-3.2-0.3-4.2-0.8s-1.8-1.3-2.3-2.4c-0.5-1.1-0.7-2.4-0.7-4.1c0-1.8,0.2-3.2,0.7-4.3c0.5-1.1,1.2-1.8,2.3-2.3
				C668.7,214.7,670.1,214.4,671.8,214.4z"/>
			<path d="M694.3,209.3l-11,21.4H680l11-21.4H694.3z"/>
			<path d="M707.5,220.1l0,2.3l-6.2,0c-0.5,0-0.9,0.1-1.1,0.4s-0.3,0.6-0.3,1v0.7c0,0.5,0.1,0.8,0.4,1.1c0.3,0.3,0.7,0.4,1.3,0.4
				c0.5,0,1-0.1,1.6-0.3c0.6-0.2,1.1-0.5,1.7-0.9c0.6-0.4,1.1-0.8,1.5-1.3v1.8c-0.2,0.3-0.4,0.6-0.7,1.1c-0.3,0.4-0.7,0.8-1.2,1.2
				c-0.5,0.4-1.1,0.7-1.8,1s-1.4,0.4-2.3,0.4c-0.8,0-1.6-0.1-2.3-0.4c-0.7-0.3-1.2-0.7-1.6-1.3c-0.4-0.6-0.6-1.3-0.6-2.2v-1.4
				c0-1.1,0.4-2,1.1-2.6c0.7-0.6,1.8-0.9,3.1-0.9H707.5z M703.8,214.4c1.2,0,2.1,0.2,2.9,0.5s1.4,0.8,1.8,1.6c0.4,0.7,0.6,1.8,0.6,3
				v9.1h-3.3l-0.6-3l-0.3-0.4v-5.7c0-0.7-0.2-1.1-0.5-1.4c-0.3-0.3-0.9-0.4-1.8-0.4c-0.7,0-1.6,0-2.7,0.1c-1.1,0-2.2,0.1-3.3,0.2
				l-0.4-2.7c0.7-0.1,1.4-0.2,2.3-0.3c0.9-0.1,1.8-0.2,2.6-0.2C702.4,214.5,703.1,214.4,703.8,214.4z"/>
			<path d="M715.7,214.8l0.5,2.7l0.4,0.4v10.7h-4.1v-13.8H715.7z M722.5,214.4l-0.4,3.8h-1.1c-0.7,0-1.3,0.1-2,0.3
				c-0.7,0.2-1.6,0.5-2.7,0.8l-0.3-2.3c1-0.9,2-1.5,2.9-2c1-0.4,2-0.7,2.9-0.7H722.5z"/>
			<path d="M730.9,214.4c0.5,0,1.1,0,1.7,0.1c0.6,0,1.2,0.1,1.8,0.3c0.6,0.1,1.2,0.3,1.7,0.5l-0.4,2.6c-0.7,0-1.5,0-2.1-0.1
				c-0.7,0-1.3,0-1.8,0c-0.8,0-1.5,0.1-2,0.3s-0.8,0.6-1,1.2c-0.2,0.6-0.3,1.4-0.3,2.4c0,1,0.1,1.8,0.3,2.4c0.2,0.6,0.6,1,1,1.2
				s1.1,0.3,2,0.3c0.3,0,0.7,0,1.1,0s1,0,1.5-0.1c0.5,0,1.1-0.1,1.6-0.2l0.4,2.6c-0.7,0.3-1.6,0.6-2.5,0.7c-1,0.1-1.9,0.2-2.8,0.2
				c-1.7,0-3.1-0.2-4.1-0.7c-1-0.5-1.8-1.2-2.2-2.3s-0.7-2.5-0.7-4.3s0.2-3.2,0.7-4.3c0.5-1.1,1.2-1.8,2.2-2.3
				C727.8,214.7,729.2,214.4,730.9,214.4z"/>
		</g>
	</g>
	<g>
		<g>
			<path d="M56.3,73.9v17.8c0,1-0.5,1.5-1.5,1.5h-2.4c-0.5,0-0.8-0.1-1.1-0.3c-0.2-0.2-0.5-0.5-0.7-1l-5.3-10.1
				c-0.2-0.4-0.4-0.9-0.7-1.4c-0.2-0.5-0.4-1-0.5-1.5h-0.3c0.1,0.5,0.1,1,0.1,1.5c0,0.5,0.1,1,0.1,1.5v11.3H40V75.5
				c0-1,0.5-1.5,1.6-1.5h2.3c0.4,0,0.8,0.1,1,0.3c0.2,0.2,0.5,0.5,0.7,1l5.2,9.8c0.2,0.4,0.5,0.9,0.7,1.4c0.2,0.5,0.5,1.1,0.7,1.6
				h0.3c-0.1-0.6-0.1-1.1-0.1-1.6c0-0.5,0-1.1,0-1.6l0-10.9H56.3z"/>
			<path d="M66.5,79.1c1.7,0,3.1,0.2,4.2,0.7c1,0.5,1.8,1.2,2.3,2.3c0.5,1.1,0.7,2.5,0.7,4.3c0,1.8-0.2,3.2-0.7,4.2
				c-0.5,1.1-1.2,1.8-2.3,2.3c-1,0.5-2.4,0.7-4.2,0.7c-1.7,0-3.1-0.2-4.2-0.7c-1.1-0.5-1.8-1.2-2.3-2.3c-0.5-1.1-0.7-2.5-0.7-4.2
				c0-1.8,0.2-3.2,0.7-4.3c0.5-1.1,1.2-1.8,2.3-2.3S64.8,79.1,66.5,79.1z M66.5,82.1c-0.7,0-1.3,0.1-1.7,0.4
				c-0.4,0.2-0.7,0.7-0.9,1.3s-0.3,1.5-0.3,2.6c0,1.1,0.1,2,0.3,2.6c0.2,0.6,0.5,1,0.9,1.3c0.4,0.2,1,0.3,1.7,0.3s1.3-0.1,1.7-0.3
				c0.4-0.2,0.7-0.7,0.9-1.3c0.2-0.6,0.3-1.5,0.3-2.6c0-1.1-0.1-2-0.3-2.6s-0.5-1-0.9-1.3C67.8,82.2,67.2,82.1,66.5,82.1z"/>
			<path d="M81.2,79.1c1,0,1.9,0.1,2.8,0.4c0.9,0.3,1.7,0.7,2.4,1.4l-0.3,1.9c-0.6-0.2-1.2-0.4-1.7-0.5S83.3,82,82.6,82
				c-0.6,0-1,0.1-1.4,0.3c-0.4,0.2-0.6,0.6-0.8,1.2c-0.2,0.6-0.3,1.5-0.3,2.7c0,1.1,0.1,1.9,0.2,2.5c0.2,0.6,0.4,1,0.8,1.2
				c0.3,0.2,0.8,0.3,1.3,0.3c0.5,0,0.9-0.1,1.3-0.2c0.4-0.1,0.7-0.3,1.1-0.5c0.4-0.2,0.8-0.5,1.2-0.8l0.3,2c-0.6,0.8-1.3,1.4-2.2,2
				c-0.9,0.5-2,0.8-3.3,0.8c-1.8,0-3-0.6-3.8-1.9c-0.8-1.3-1.1-3.1-1.1-5.5c0-1.8,0.2-3.3,0.6-4.3s1-1.8,1.8-2.2S80,79.1,81.2,79.1z
				 M89.8,73.7v19.6h-3.3l-0.4-2.5l-0.4-0.3v-9.1l0.2-0.4c-0.1-0.6-0.1-1.2-0.1-1.8c0-0.6,0-1.2,0-1.8v-3.8H89.8z"/>
			<path d="M99.7,79.1c2.3,0,4,0.4,5,1.2s1.5,2,1.5,3.5c0,1.3-0.3,2.2-1,2.8c-0.7,0.6-1.8,0.9-3.4,0.9h-7.7v-2.3h6.6
				c0.6,0,1-0.1,1.2-0.4c0.2-0.3,0.3-0.6,0.3-1.1c0-0.7-0.2-1.1-0.6-1.4c-0.4-0.3-1-0.4-1.8-0.4c-0.8,0-1.4,0.1-1.8,0.3
				c-0.4,0.2-0.7,0.6-0.9,1.2s-0.3,1.4-0.3,2.5c0,1.2,0.1,2,0.3,2.7c0.2,0.6,0.6,1.1,1,1.3c0.5,0.2,1.2,0.4,2.1,0.4
				c0.6,0,1.4,0,2.4-0.1s1.9-0.1,2.8-0.2l0.4,2.5c-0.5,0.3-1.2,0.5-1.8,0.6s-1.4,0.3-2.1,0.3c-0.7,0.1-1.4,0.1-2.1,0.1
				c-1.8,0-3.2-0.3-4.2-0.8s-1.8-1.3-2.3-2.4c-0.5-1.1-0.7-2.4-0.7-4.1c0-1.8,0.2-3.2,0.7-4.3c0.5-1.1,1.2-1.8,2.3-2.3
				C96.6,79.3,98,79.1,99.7,79.1z"/>
			<path d="M122.2,73.9l-11,21.4h-3.3l11-21.4H122.2z"/>
			<path d="M138.4,79.4l-4.6,12.9c-0.1,0.3-0.3,0.5-0.5,0.7c-0.2,0.2-0.5,0.3-0.8,0.3h-3.6c-0.3,0-0.6-0.1-0.8-0.3
				c-0.2-0.2-0.4-0.4-0.5-0.7L123,79.4h4.4l2.5,8.7c0.1,0.4,0.2,0.8,0.3,1.3c0.1,0.4,0.2,0.8,0.3,1.2h0.4c0.1-0.4,0.2-0.8,0.3-1.2
				s0.2-0.8,0.3-1.2l2.5-8.7H138.4z"/>
			<path d="M146.8,79.1c2.3,0,4,0.4,5,1.2s1.5,2,1.5,3.5c0,1.3-0.3,2.2-1,2.8c-0.7,0.6-1.8,0.9-3.4,0.9h-7.7v-2.3h6.6
				c0.6,0,1-0.1,1.2-0.4c0.2-0.3,0.3-0.6,0.3-1.1c0-0.7-0.2-1.1-0.6-1.4c-0.4-0.3-1-0.4-1.8-0.4c-0.8,0-1.4,0.1-1.8,0.3
				c-0.4,0.2-0.7,0.6-0.9,1.2S144,84.9,144,86c0,1.2,0.1,2,0.3,2.7c0.2,0.6,0.6,1.1,1,1.3c0.5,0.2,1.2,0.4,2.1,0.4
				c0.6,0,1.4,0,2.4-0.1s1.9-0.1,2.8-0.2l0.4,2.5c-0.5,0.3-1.2,0.5-1.8,0.6s-1.4,0.3-2.1,0.3c-0.7,0.1-1.4,0.1-2.1,0.1
				c-1.8,0-3.2-0.3-4.2-0.8s-1.8-1.3-2.3-2.4c-0.5-1.1-0.7-2.4-0.7-4.1c0-1.8,0.2-3.2,0.7-4.3c0.5-1.1,1.2-1.8,2.3-2.3
				C143.8,79.3,145.1,79.1,146.8,79.1z"/>
			<path d="M159.3,79.4l0.5,2.7l0.4,0.4v10.7h-4.1V79.4H159.3z M166.1,79.1l-0.4,3.8h-1.1c-0.7,0-1.3,0.1-2,0.3
				c-0.7,0.2-1.6,0.5-2.7,0.8l-0.3-2.3c1-0.9,2-1.5,2.9-2c1-0.4,2-0.7,2.9-0.7H166.1z"/>
			<path d="M177.3,79.4v2.7h-10.4v-2.6l2.7-0.1H177.3z M173.4,75.6v13.2c0,0.5,0.1,0.9,0.3,1.1c0.2,0.2,0.6,0.3,1.2,0.3h1.8l0.4,2.8
				c-0.3,0.1-0.7,0.2-1.2,0.3s-1,0.1-1.5,0.2c-0.5,0-0.9,0.1-1.2,0.1c-1.3,0-2.2-0.3-2.9-1c-0.7-0.7-1-1.6-1-2.8l0-14.2H173.4z"/>
			<path d="M186.1,79.1c2.3,0,4,0.4,5,1.2s1.5,2,1.5,3.5c0,1.3-0.3,2.2-1,2.8c-0.7,0.6-1.8,0.9-3.4,0.9h-7.7v-2.3h6.6
				c0.6,0,1-0.1,1.2-0.4c0.2-0.3,0.3-0.6,0.3-1.1c0-0.7-0.2-1.1-0.6-1.4c-0.4-0.3-1-0.4-1.8-0.4c-0.8,0-1.4,0.1-1.8,0.3
				c-0.4,0.2-0.7,0.6-0.9,1.2s-0.3,1.4-0.3,2.5c0,1.2,0.1,2,0.3,2.7c0.2,0.6,0.6,1.1,1,1.3c0.5,0.2,1.2,0.4,2.1,0.4
				c0.6,0,1.4,0,2.4-0.1s1.9-0.1,2.8-0.2l0.4,2.5c-0.5,0.3-1.2,0.5-1.8,0.6s-1.4,0.3-2.1,0.3c-0.7,0.1-1.4,0.1-2.1,0.1
				c-1.8,0-3.2-0.3-4.2-0.8s-1.8-1.3-2.3-2.4c-0.5-1.1-0.7-2.4-0.7-4.1c0-1.8,0.2-3.2,0.7-4.3c0.5-1.1,1.2-1.8,2.3-2.3
				C183,79.3,184.4,79.1,186.1,79.1z"/>
			<path d="M198.4,79.4l3.8,6.7l-4.1,7.1h-4.2l4.3-7.1l-4-6.7H198.4z M203.8,84.8v2.6h-4.4v-2.6H203.8z M208.9,79.4l-4,6.7l4.3,7.1
				H205l-4.1-7.1l3.8-6.7H208.9z"/>
		</g>
	</g>
	<g>
		<g>
			<path d="M558.4,323.7v14.4c0,0.5,0.1,0.8,0.4,1.1c0.3,0.2,0.6,0.4,1.1,0.4h6.7l0.2,3.2c-1.3,0.2-2.7,0.2-4.2,0.3
				c-1.4,0-2.9,0-4.3,0c-1.4,0-2.5-0.4-3.2-1.1c-0.7-0.8-1.1-1.7-1.1-2.9v-15.4H558.4z"/>
			<path d="M575.5,328.8c1.7,0,3.1,0.2,4.2,0.7c1,0.5,1.8,1.2,2.3,2.3c0.5,1.1,0.7,2.5,0.7,4.3c0,1.8-0.2,3.2-0.7,4.2
				c-0.5,1.1-1.2,1.8-2.3,2.3c-1,0.5-2.4,0.7-4.2,0.7c-1.7,0-3.1-0.2-4.2-0.7s-1.8-1.2-2.3-2.3c-0.5-1.1-0.7-2.5-0.7-4.2
				c0-1.8,0.2-3.2,0.7-4.3c0.5-1.1,1.2-1.8,2.3-2.3C572.4,329,573.8,328.8,575.5,328.8z M575.5,331.8c-0.7,0-1.3,0.1-1.7,0.4
				c-0.4,0.2-0.7,0.7-0.9,1.3s-0.3,1.5-0.3,2.6c0,1.1,0.1,2,0.3,2.6s0.5,1,0.9,1.3c0.4,0.2,1,0.3,1.7,0.3s1.3-0.1,1.7-0.3
				c0.4-0.2,0.7-0.7,0.9-1.3s0.3-1.5,0.3-2.6c0-1.1-0.1-2-0.3-2.6s-0.5-1-0.9-1.3C576.7,331.9,576.2,331.8,575.5,331.8z"/>
			<path d="M592,328.8c1.7,0,3.1,0.2,4.2,0.7c1,0.5,1.8,1.2,2.3,2.3c0.5,1.1,0.7,2.5,0.7,4.3c0,1.8-0.2,3.2-0.7,4.2
				c-0.5,1.1-1.2,1.8-2.3,2.3c-1,0.5-2.4,0.7-4.2,0.7c-1.7,0-3.1-0.2-4.2-0.7s-1.8-1.2-2.3-2.3c-0.5-1.1-0.7-2.5-0.7-4.2
				c0-1.8,0.2-3.2,0.7-4.3c0.5-1.1,1.2-1.8,2.3-2.3C588.9,329,590.3,328.8,592,328.8z M592,331.8c-0.7,0-1.3,0.1-1.7,0.4
				c-0.4,0.2-0.7,0.7-0.9,1.3s-0.3,1.5-0.3,2.6c0,1.1,0.1,2,0.3,2.6s0.5,1,0.9,1.3c0.4,0.2,1,0.3,1.7,0.3s1.3-0.1,1.7-0.3
				c0.4-0.2,0.7-0.7,0.9-1.3s0.3-1.5,0.3-2.6c0-1.1-0.1-2-0.3-2.6s-0.5-1-0.9-1.3C593.3,331.9,592.7,331.8,592,331.8z"/>
			<path d="M605.3,329.2l0.4,2.5l0.4,0.4v9l-0.1,0.3c0.1,0.6,0.1,1.1,0.1,1.8c0,0.6,0,1.2,0,1.8v3.3h-4.1v-19.2H605.3z M611,328.8
				c1.7,0,3,0.6,3.7,1.9c0.7,1.3,1.1,3.1,1.1,5.5c0,1.8-0.2,3.3-0.6,4.3c-0.4,1-1,1.8-1.7,2.2c-0.8,0.4-1.7,0.6-2.9,0.6
				c-1,0-1.9-0.1-2.8-0.4c-0.9-0.3-1.7-0.7-2.4-1.4l0.3-1.8c0.6,0.2,1.2,0.4,1.7,0.5c0.5,0.1,1.1,0.2,1.8,0.2c0.6,0,1.1-0.1,1.4-0.3
				c0.4-0.2,0.6-0.6,0.8-1.2c0.2-0.6,0.2-1.5,0.2-2.6c0-1.1-0.1-2-0.2-2.6c-0.1-0.6-0.4-1-0.7-1.3s-0.8-0.3-1.3-0.3
				c-0.6,0-1.1,0.1-1.7,0.3s-1.1,0.6-1.7,1l-0.5-1.9c0.4-0.5,0.9-1,1.4-1.3c0.6-0.4,1.2-0.7,1.9-0.9
				C609.6,328.9,610.3,328.8,611,328.8z"/>
		</g>
	</g>
	<g>
		<g>
			<path d="M477,423.4c0.9,0,1.7,0,2.3,0.1c0.6,0,1.2,0.1,1.8,0.2c0.5,0.1,1.1,0.2,1.7,0.4l-0.3,3.1c-0.6,0-1.2-0.1-1.7-0.1
				s-1.1,0-1.7,0c-0.6,0-1.3,0-2.1,0c-1,0-1.7,0.2-2.2,0.6c-0.5,0.4-0.9,1-1.1,1.9c-0.2,0.9-0.3,2.2-0.3,3.8s0.1,2.9,0.3,3.8
				c0.2,0.9,0.6,1.6,1.1,1.9c0.5,0.4,1.3,0.6,2.2,0.6c1.3,0,2.4,0,3.2-0.1c0.9,0,1.7-0.1,2.6-0.2l0.4,3.1c-0.9,0.3-1.8,0.5-2.7,0.6
				c-0.9,0.1-2.1,0.2-3.5,0.2c-2,0-3.6-0.3-4.8-1c-1.2-0.6-2.1-1.7-2.6-3.2s-0.8-3.4-0.8-5.9s0.3-4.4,0.8-5.9s1.4-2.5,2.6-3.2
				C473.4,423.7,475,423.4,477,423.4z"/>
			<path d="M488.6,429.2l2.6,9c0.1,0.4,0.1,0.7,0.2,1.1c0.1,0.4,0.1,0.7,0.2,1.1h0.8l-1.3,2.7h-1c-0.3,0-0.6-0.1-0.8-0.3
				c-0.2-0.2-0.4-0.4-0.5-0.7l-4.6-12.8H488.6z M499.6,429.2l-5,14c-0.2,0.7-0.5,1.4-0.9,2.1s-0.9,1.3-1.5,1.9
				c-0.6,0.6-1.3,1-2.2,1.3c-0.8,0.3-1.9,0.4-3,0.2l-0.3-2.4c1.1-0.3,2-0.7,2.7-1.2s1.1-1.2,1.5-2l0.9-1.9c0.2-0.4,0.3-0.9,0.5-1.5
				c0.2-0.6,0.3-1.1,0.4-1.5l2.6-9H499.6z"/>
			<path d="M507.9,428.9c0.5,0,1.1,0,1.7,0.1c0.6,0,1.2,0.1,1.8,0.3c0.6,0.1,1.2,0.3,1.7,0.5l-0.4,2.6c-0.7,0-1.5,0-2.1-0.1
				c-0.7,0-1.3,0-1.8,0c-0.8,0-1.5,0.1-2,0.3s-0.8,0.6-1,1.2c-0.2,0.6-0.3,1.4-0.3,2.4c0,1,0.1,1.8,0.3,2.4c0.2,0.6,0.6,1,1,1.2
				s1.1,0.3,2,0.3c0.3,0,0.7,0,1.1,0c0.5,0,1,0,1.5-0.1c0.5,0,1.1-0.1,1.6-0.2l0.4,2.6c-0.7,0.3-1.6,0.6-2.5,0.7
				c-1,0.1-1.9,0.2-2.8,0.2c-1.7,0-3.1-0.2-4.1-0.7c-1-0.5-1.8-1.2-2.2-2.3c-0.4-1.1-0.7-2.5-0.7-4.3c0-1.8,0.2-3.2,0.7-4.3
				c0.5-1.1,1.2-1.8,2.2-2.3C504.9,429.1,506.2,428.9,507.9,428.9z"/>
			<path d="M519.9,423.5l0,15.2c0,0.5,0.1,0.8,0.4,1s0.7,0.3,1.2,0.3h1.1l0.5,2.8c-0.2,0.1-0.5,0.2-1,0.3c-0.4,0.1-0.8,0.1-1.3,0.2
				c-0.4,0-0.8,0.1-1.1,0.1c-1.2,0-2.2-0.3-3-1c-0.7-0.7-1.1-1.6-1.1-2.7v-16.2H519.9z"/>
			<path d="M531.5,428.9c2.3,0,4,0.4,5,1.2c1,0.8,1.5,2,1.5,3.5c0,1.3-0.3,2.2-1,2.8c-0.7,0.6-1.8,0.9-3.4,0.9H526v-2.3h6.6
				c0.6,0,1-0.1,1.2-0.4s0.3-0.6,0.3-1.1c0-0.7-0.2-1.1-0.6-1.4s-1-0.4-1.8-0.4c-0.8,0-1.4,0.1-1.8,0.3c-0.4,0.2-0.7,0.6-0.9,1.2
				c-0.2,0.6-0.3,1.4-0.3,2.5c0,1.2,0.1,2,0.3,2.7c0.2,0.6,0.6,1.1,1,1.3c0.5,0.2,1.2,0.4,2.1,0.4c0.6,0,1.4,0,2.4-0.1
				s1.9-0.1,2.8-0.2l0.4,2.5c-0.5,0.3-1.2,0.5-1.8,0.6s-1.4,0.3-2.1,0.3c-0.7,0.1-1.4,0.1-2.1,0.1c-1.8,0-3.2-0.3-4.2-0.8
				c-1.1-0.5-1.8-1.3-2.3-2.4c-0.5-1.1-0.7-2.4-0.7-4.1c0-1.8,0.2-3.2,0.7-4.3c0.5-1.1,1.2-1.8,2.3-2.3
				C528.4,429.1,529.8,428.9,531.5,428.9z"/>
		</g>
	</g>
</g>
</svg>
